<svg width="151" height="83" viewBox="0 0 151 83" fill="none" xmlns="http://www.w3.org/2000/svg">
<path d="M129.851 82.6821L126.435 82.1901C126.311 82.1723 126.199 82.2663 126.194 82.3917C126.19 82.5081 126.093 82.5993 125.976 82.5954L114.458 82.2078C114.199 82.1991 113.94 82.2259 113.685 82.2766C112.626 82.4876 111.515 82.5775 110.36 82.5386C108.207 82.4662 106.13 81.9573 104.241 81.0441C103.107 80.5697 102.084 79.9432 101.177 79.1963C101.016 79.063 100.788 79.0421 100.605 79.1444C98.992 80.1226 97.1615 80.7026 95.2027 80.8391C94.5272 80.9086 93.8435 80.9314 93.1546 80.9082C91.1092 80.8394 89.1977 80.3836 87.4772 79.632C86.6604 79.2753 85.7383 79.2051 84.8954 79.4947C83.9363 79.8242 82.9777 80.1059 82.0339 80.3416L76.5038 81.7222C76.0516 81.8351 75.617 81.4837 75.6327 81.0178C75.6459 80.6305 75.3425 80.306 74.9552 80.2929L73.7739 80.2532C73.611 80.2477 73.4482 80.2641 73.2887 80.2977C72.1795 80.5311 71.0192 80.6292 69.8247 80.589C69.3559 80.5732 68.8902 80.537 68.4287 80.4804C66.3445 80.3661 64.4275 79.7879 62.7559 78.8233C61.5784 78.1439 60.1116 78.065 58.8605 78.597C57.4391 79.2015 55.8405 79.5432 54.0766 79.5302L52.0234 79.5152C50.3357 79.5028 48.9903 78.1012 49.047 76.4144L49.1165 74.3495C49.1613 73.02 47.9261 72.008 46.5965 72.0509C44.7965 72.109 43.0877 71.8284 41.5236 71.2816C41.1943 71.1665 40.8418 71.412 40.8534 71.7606C40.8622 72.0262 40.6537 72.2485 40.3881 72.2567L36.9907 72.3618C36.709 72.3705 36.4299 72.4189 36.1616 72.5055L31.8097 73.9106C31.3635 74.0547 30.9036 73.7311 30.8885 73.2625C30.8759 72.8733 30.5503 72.568 30.1611 72.5806L29.9526 72.5873C29.876 72.5898 29.7999 72.602 29.7261 72.6228C28.7294 72.9034 27.6796 73.063 26.5932 73.0981C18.8097 73.3491 12.5941 67.4052 12.3262 59.0988C12.2523 56.8082 12.6378 54.6721 13.3978 52.773C13.6463 52.1521 12.9006 51.2994 12.237 51.3818L11.4929 51.4742C7.7385 51.9404 4.31706 49.2748 3.85087 45.5204L0.266299 16.6523C-0.199886 12.898 2.46573 9.47651 6.22011 9.01032L23.1413 6.9092C26.8957 6.44301 30.3172 9.10864 30.7833 12.863L30.818 13.1423C30.859 13.472 30.8757 13.7991 30.8698 14.1218C30.8607 14.6123 31.8268 15.1666 32.2126 14.8636C32.247 14.8367 32.2771 14.805 32.3021 14.7692L40.7745 2.64027C41.3357 1.83688 42.2539 1.35823 43.2339 1.35823H48.0753C48.5844 1.35823 49.0813 1.22008 49.5447 1.00917C51.1798 0.264912 52.9331 0 54.5796 0C57.0873 0 59.9319 0.633891 62.2712 2.44963C64.7819 4.39844 66.2313 7.35172 66.2313 10.8554C66.2313 11.5528 66.1919 12.2246 66.1149 12.8728C66.0785 13.1789 66.2321 13.4781 66.5008 13.6289C67.0058 13.9124 67.661 13.5629 67.661 12.9838V12.9271C67.661 12.514 67.9959 12.1792 68.4089 12.1792H91.3418C92.3563 12.1792 93.0952 11.2138 93.0952 10.1992C93.0952 6.00226 96.3958 2.38867 100.906 2.38867C105.408 2.38867 108.763 5.94666 108.763 10.1992C108.763 11.1111 109.503 11.9515 110.415 11.9535C111.212 11.9552 112.023 12.012 112.842 12.124C116.873 12.6749 120.164 14.4955 122.452 17.1678C123.628 18.5411 125.664 19.0655 127.352 18.4183C130.128 17.3542 133.239 17.1344 136.379 17.9136C137.506 18.1933 138.562 18.585 139.537 19.0831C139.767 19.2007 140.008 19.2967 140.259 19.359L148.709 21.4559C150.317 21.8549 151.298 23.482 150.899 25.0901L144.744 49.895C144.392 51.3101 143.075 52.2679 141.62 52.165L140.573 52.091C138.877 51.971 137.42 53.2832 137.363 54.9826L137.302 56.803C137.301 56.8183 137.307 56.8333 137.317 56.8447C137.426 56.9676 137.628 57.1586 138.002 57.441C138.385 57.7306 138.823 58.0241 139.422 58.4226L139.589 58.5341C140.804 59.3411 142.713 60.6091 144.213 62.437C145.967 64.5763 147.072 67.3229 146.955 70.7855C146.842 74.1683 145.55 77.8404 142.217 80.3236C138.961 82.7489 134.646 83.3726 129.851 82.6821Z" fill="white"/>
<path d="M141.563 24.8343L145.564 25.827L140.487 46.2859L136.486 45.2932L137.141 42.6563C135.155 44.2389 132.691 44.834 129.872 44.1346C124.416 42.7808 121.01 37.4471 122.612 30.9912C124.225 24.4898 129.719 21.4127 135.174 22.7664C137.993 23.4659 139.905 25.0985 140.909 27.4712L141.563 24.8343ZM126.704 32.0065C125.7 36.0528 127.365 39.6514 131.275 40.6216C135.23 41.603 138.339 39.189 139.343 35.1427C140.358 31.0509 138.727 27.5091 134.772 26.5277C130.862 25.5575 127.719 27.9147 126.704 32.0065Z" fill="#D46E42"/>
<path fill-rule="evenodd" clip-rule="evenodd" d="M100.906 13.0567C99.266 13.0567 98.0949 11.7919 98.0949 10.1992C98.0949 8.65343 99.266 7.38867 100.906 7.38867C102.592 7.38867 103.763 8.65343 103.763 10.1992C103.763 11.7919 102.592 13.0567 100.906 13.0567ZM93.0828 34.9795V34.9791C95.6123 34.9791 98.7507 31.3254 98.7507 23.5963V17.1788H102.873V20.3486C104.972 17.7618 108.2 16.5362 112.165 17.078C117.27 17.7756 120.438 21.2344 120.97 25.9877L116.515 25.3788C116.03 23.0432 114.349 21.1588 111.657 20.7909C107.759 20.2581 105.119 22.9704 104.548 27.1475C103.984 31.2781 105.793 34.6457 109.831 35.1975C112.476 35.559 114.204 34.3296 115.538 32.5262L119.994 33.135C118.058 37.2674 114.336 39.5954 109.323 38.9104C107.926 38.7195 106.676 38.3483 105.584 37.8185C104.02 37.2317 102.768 36.097 101.885 34.632C101.439 33.9611 101.081 33.225 100.812 32.4316C99.746 36.2244 96.9609 38.7259 93.0843 38.7266V38.7269C84.9805 38.7269 82.1699 33.7147 82.1699 27.9999C82.1699 25.3298 82.8725 22.6129 84.8868 20.8329H76.8766C76.8766 30.8573 76.5956 36.7126 69.2881 38.4927V34.1363C72.286 33.0589 72.6608 30.1078 72.6608 20.8797V17.1792H90.0863V20.2239C86.9479 22.3787 86.3389 25.0956 86.3389 27.2504C86.3389 31.0911 87.6034 34.9787 93.0828 34.9795Z" fill="#D46E42"/>
<path fill-rule="evenodd" clip-rule="evenodd" d="M59.4511 16.7107C60.5753 15.1181 61.2311 13.2912 61.2311 10.8554C61.2311 6.78003 58.0458 5 54.5794 5C50.5041 5 48.2088 7.24846 48.2088 13.8533V19.8928C46.663 17.8336 44.4154 16.7105 41.5125 16.7105C35.8914 16.7105 31.3008 21.0201 31.3008 27.7186C31.3008 34.3703 35.8914 38.7267 41.5125 38.7267C44.4154 38.7267 46.663 37.5568 48.2088 35.5443V38.2585H52.3309V38.2582H52.3332V35.4511C53.8323 37.557 56.1267 38.7269 59.0295 38.7269C64.6975 38.7269 69.2881 34.3705 69.2881 27.7188C69.2881 21.2076 64.9317 16.9449 59.4511 16.7107ZM56.3166 34.6238C56.9948 34.8555 57.7451 34.9795 58.5611 34.9795C62.6364 34.9795 65.0722 31.8878 65.0722 27.7188C65.0722 24.3876 63.5514 21.7876 60.9027 20.8431C60.1993 20.5922 59.4163 20.4582 58.5611 20.4582C56.1131 20.4582 54.2566 21.5568 53.1644 23.3479C52.8003 23.945 52.5211 24.619 52.3332 25.3549C52.1464 26.0866 52.0499 26.8795 52.0499 27.7188C52.0499 28.5488 52.1464 29.3361 52.3332 30.0648C52.6183 31.1766 53.1134 32.1519 53.7963 32.9345C54.4639 33.6994 55.311 34.2801 56.3166 34.6238ZM52.7378 19.3736L52.7397 19.3716L52.7403 19.3709C55.0745 16.9142 57.2494 14.6251 57.2494 11.7922C57.2494 9.82482 56.2658 8.74743 54.7668 8.74743C53.1741 8.74743 52.3309 10.0122 52.3309 13.8065V17.1789H52.3332V19.7999C52.4684 19.6572 52.6034 19.5151 52.7378 19.3736ZM42.0278 20.4579C45.2265 20.4579 47.4152 22.3337 48.2088 25.1792C48.4263 25.9591 48.539 26.8117 48.539 27.7186C48.539 28.6154 48.4263 29.4623 48.2088 30.2393C47.4152 33.0746 45.2265 34.9792 42.0278 34.9792C38.2511 34.9792 35.833 32.262 35.5455 28.4872C35.5263 28.2355 35.5166 27.9792 35.5166 27.7186C35.5166 24.0297 37.4174 21.2374 40.5914 20.597C41.0448 20.5055 41.5242 20.4579 42.0278 20.4579ZM44.2763 6.35823L39.8262 12.7289H43.8078L49.3821 6.35823H44.2763Z" fill="#D46E42"/>
<path d="M23.7572 11.8711C24.7712 11.7452 25.6953 12.4651 25.8212 13.4791L25.8559 13.7584C25.9818 14.7724 25.2619 15.6965 24.2479 15.8224L11.7428 17.3752C10.7288 17.5011 10.0089 18.4252 10.1348 19.4392L11.0699 26.9702C11.1958 27.9842 12.1199 28.7042 13.1339 28.5783L23.4541 27.2968C24.4681 27.1709 25.3922 27.8908 25.5181 28.9048L25.5528 29.1841C25.6787 30.1981 24.9588 31.1222 23.9448 31.2481L13.6246 32.5296C12.6105 32.6555 11.8906 33.5796 12.0165 34.5936L13.2287 44.3559C13.3546 45.37 12.6347 46.294 11.6207 46.42L10.8766 46.5123C9.86255 46.6383 8.93847 45.9183 8.81256 44.9043L5.22798 16.0362C5.10207 15.0222 5.82201 14.0981 6.83602 13.9722L23.7572 11.8711Z" fill="#D46E42"/>
<path fill-rule="evenodd" clip-rule="evenodd" d="M29.3172 39.0336C26.3424 39.1295 23.6581 40.7453 23.7709 44.2427C23.8383 46.3331 24.4517 47.8827 25.4606 49.2184C20.7637 49.5711 17.1431 53.3499 17.3233 58.9377C17.5075 64.646 21.5676 68.2575 26.4318 68.1007C28.9242 68.0203 30.8616 66.9517 32.0896 65.1012L32.1674 67.5132L35.7017 67.3992L35.7018 67.3997C35.7023 67.3995 35.7029 67.3994 35.7034 67.3992L35.705 67.3991L35.705 67.3987C37.3768 66.8619 39.0822 66.1231 40.6606 65.1874C42.1882 66.3857 44.1839 67.1261 46.4351 67.0535C50.2541 66.9303 53.0707 64.425 54.0757 60.6501L50.2165 60.7746C49.3866 62.4915 48.06 63.7818 46.05 63.8466C45.0852 63.8777 44.2332 63.6637 43.4954 63.2449C47.304 60.3051 49.9572 56.4771 49.8392 52.8189C49.7329 49.5225 47.5543 48.1038 44.6599 48.1972C40.1575 48.3424 36.782 52.234 36.9636 57.862C37.018 59.5504 37.5147 61.2245 38.4055 62.6445C37.4587 63.1975 36.508 63.6303 35.5948 63.9815L35.0295 46.455C34.8466 40.7868 32.8146 38.9208 29.3172 39.0336ZM26.7301 64.8717C23.2327 64.9845 21.0567 62.3987 20.9413 58.821C20.8246 55.203 22.8307 52.5226 26.3281 52.4097C29.8255 52.2969 32.0002 54.8425 32.1169 58.4605C32.2323 62.0383 30.2275 64.7589 26.7301 64.8717ZM31.2933 51.3156C29.2221 49.2718 27.2923 47.3676 27.2138 44.9365C27.1594 43.2481 27.9738 42.2963 29.2602 42.2548C30.6269 42.2107 31.3856 43.2727 31.4906 46.5289L31.6566 51.6745C31.5352 51.5543 31.414 51.4347 31.2933 51.3156ZM41.2442 60.8225C40.8137 59.9511 40.5387 58.9137 40.5063 57.9087C40.3896 54.2907 41.9898 51.5026 44.3616 51.4261C45.8088 51.3795 46.1992 52.2522 46.2355 53.3778C46.321 56.031 44.1139 58.7179 41.2442 60.8225Z" fill="#D46E42"/>
<path fill-rule="evenodd" clip-rule="evenodd" d="M68.7295 47.662C68.8666 43.589 72.11 41.9171 75.5744 42.0337C79.6474 42.1707 81.8658 44.4951 81.6437 51.0962L80.9568 71.5109C82.0461 71.1727 83.1853 70.7423 84.3292 70.1716C83.4028 68.4531 82.954 66.4695 83.0201 64.5032C83.2406 57.9489 87.4617 53.6852 92.7052 53.8617C96.076 53.9751 98.4989 55.7908 98.3698 59.6297C98.2264 63.89 94.8496 68.1352 90.1981 71.2596C91.0235 71.8029 91.9972 72.1169 93.1208 72.1547C95.4616 72.2335 97.1022 70.8357 98.1983 68.9041L98.2194 68.9048C99.0183 67.2436 99.5949 64.8585 99.7054 61.5753L99.9212 55.1614L104.041 55.3001L103.94 58.3034C105.855 56.4405 108.451 55.4429 111.269 55.5378C114.171 55.6354 116.381 56.8346 117.856 58.9465L117.948 56.2312L122.068 56.3698L121.498 73.3035C125.511 73.4188 127.364 66.9702 128.229 56.5634L132.302 56.7004C132.204 59.6236 134.354 61.0553 136.65 62.5844C139.282 64.3368 142.106 66.2172 141.958 70.6174C141.805 75.1586 138.633 78.8952 130.564 77.7331L130.696 73.8006C135.722 74.8602 137.724 72.4903 137.801 70.1963C137.871 68.1047 136.216 67.0751 134.388 65.9383C133.394 65.3194 132.348 64.6687 131.501 63.7976C130.309 71.3898 127.666 77.6234 121.359 77.4234L121.359 77.4372L117.239 77.2986L117.33 74.5832C115.718 76.5443 113.431 77.6391 110.528 77.5415C109.007 77.4903 107.572 77.1224 106.293 76.4811C104.655 75.8305 103.354 74.6324 102.464 73.0444C102.135 72.5367 101.845 71.9919 101.601 71.4128C100.703 72.8831 99.509 74.0475 98.0857 74.8238C97.1312 75.4195 96.0208 75.7824 94.7743 75.8565C94.3035 75.909 93.8192 75.9278 93.3225 75.911C90.7008 75.8228 88.4383 74.8093 86.7549 73.2997C84.8476 74.2667 82.8077 74.9948 80.8225 75.4905L80.8226 75.4875L76.7032 75.3489L76.7977 72.5399C75.2287 74.5963 72.8953 75.6895 69.9927 75.5918C69.6118 75.579 69.2364 75.5467 68.8676 75.4955C66.4436 75.4075 64.4811 74.3543 63.124 72.638C62.2702 71.7688 61.5662 70.7275 61.053 69.5403C59.833 72.4792 57.3957 74.5544 54.113 74.5304L54.2517 70.4105C56.502 70.3925 59.354 67.8169 59.6154 60.0454L59.8313 53.6315L63.9511 53.7702L63.8796 55.8958C65.6372 54.4187 67.8771 53.596 70.3117 53.5739C69.2416 51.9444 68.6476 50.0965 68.7295 47.662ZM70.5868 71.8623C68.2274 71.7829 66.4528 70.6852 65.4044 68.9656C65.1803 68.5675 64.9714 68.1262 64.7824 67.6413C64.4423 66.6672 64.2838 65.5669 64.3235 64.3868C64.4653 60.1733 67.0021 57.2121 71.0752 57.3492C75.1482 57.4862 77.4803 60.6112 77.3385 64.8247C77.1983 68.9913 74.6599 71.9993 70.5868 71.8623ZM76.9292 56.4583L76.9292 56.4583L76.9293 56.4585C77.0604 56.6061 77.1921 56.7543 77.3238 56.9033L77.5254 50.9108C77.653 47.1186 76.8529 45.8262 75.2611 45.7727C73.763 45.7223 72.7436 46.766 72.6774 48.7323C72.5822 51.5635 74.6789 53.9244 76.9292 56.4583ZM62.1234 49.5842C60.4849 49.529 59.357 48.2256 59.4105 46.6338C59.4625 45.0889 60.6755 43.8642 62.314 43.9194C63.9994 43.9761 65.1273 45.2795 65.0753 46.8244C65.0218 48.4162 63.8088 49.6409 62.1234 49.5842ZM99.5005 48.1637C99.4469 49.7555 100.575 51.0589 102.213 51.1141C103.899 51.1708 105.112 49.9461 105.165 48.3543C105.217 46.8094 104.089 45.506 102.404 45.4493C100.765 45.3941 99.5525 46.6188 99.5005 48.1637ZM104.906 66.338C104.766 70.5046 107.143 73.678 111.169 73.8135C115.242 73.9505 117.781 70.9426 117.921 66.7759C118.063 62.5624 115.731 59.4374 111.658 59.3004C107.631 59.1649 105.048 62.1245 104.906 66.338ZM87.1337 64.8291C87.0943 65.9995 87.3342 67.2262 87.7677 68.2719C91.2641 66.0461 94.035 63.0928 94.139 60.0029C94.1831 58.6921 93.7964 57.6479 92.111 57.5912C89.3488 57.4983 87.2754 60.6156 87.1337 64.8291Z" fill="#D46E42"/>
</svg>
