<svg width="151" height="83" viewBox="0 0 151 83" fill="none" xmlns="http://www.w3.org/2000/svg">
<path d="M129.851 82.6821L126.435 82.1901C126.31 82.1723 126.198 82.2663 126.194 82.3917C126.19 82.5081 126.092 82.5993 125.976 82.5954L114.458 82.2078C114.198 82.1991 113.939 82.2259 113.685 82.2766C112.626 82.4876 111.514 82.5775 110.36 82.5386C108.206 82.4662 106.13 81.9573 104.241 81.0441C103.107 80.5697 102.083 79.9432 101.177 79.1963C101.015 79.063 100.788 79.0421 100.605 79.1444C98.9915 80.1226 97.161 80.7026 95.2022 80.8391C94.5267 80.9086 93.843 80.9314 93.1541 80.9082C91.1087 80.8394 89.1972 80.3836 87.4767 79.632C86.6599 79.2753 85.7378 79.2051 84.8949 79.4947C83.9358 79.8242 82.9772 80.1059 82.0334 80.3416L76.5033 81.7222C76.0511 81.8351 75.6165 81.4837 75.6322 81.0178C75.6454 80.6305 75.342 80.306 74.9547 80.2929L73.7734 80.2532C73.6105 80.2477 73.4477 80.2641 73.2882 80.2977C72.179 80.5311 71.0187 80.6292 69.8242 80.589C69.3554 80.5732 68.8897 80.537 68.4282 80.4804C66.344 80.3661 64.427 79.7879 62.7554 78.8233C61.578 78.1439 60.1111 78.065 58.8601 78.597C57.4387 79.2015 55.84 79.5432 54.0761 79.5302L52.0229 79.5152C50.3352 79.5028 48.9898 78.1012 49.0466 76.4144L49.116 74.3495C49.1608 73.02 47.9256 72.008 46.596 72.0509C44.796 72.109 43.0872 71.8284 41.5231 71.2816C41.1938 71.1665 40.8413 71.412 40.8529 71.7606C40.8617 72.0262 40.6533 72.2485 40.3876 72.2567L36.9902 72.3618C36.7085 72.3705 36.4294 72.4189 36.1611 72.5055L31.8092 73.9106C31.363 74.0547 30.9031 73.7311 30.888 73.2625C30.8755 72.8733 30.5498 72.568 30.1607 72.5806L29.9522 72.5873C29.8755 72.5898 29.7995 72.602 29.7256 72.6228C28.7289 72.9034 27.6791 73.063 26.5927 73.0981C18.8093 73.3491 12.5936 67.4052 12.3257 59.0988C12.2518 56.8082 12.6373 54.6721 13.3973 52.773C13.6458 52.1521 12.9001 51.2994 12.2365 51.3818L11.4924 51.4742C7.73802 51.9404 4.31657 49.2748 3.85039 45.5204L0.265811 16.6523C-0.200374 12.898 2.46524 9.47651 6.21962 9.01032L23.1408 6.9092C26.8952 6.44301 30.3167 9.10864 30.7829 12.863L30.8175 13.1423C30.8585 13.472 30.8753 13.7991 30.8693 14.1218C30.8602 14.6123 31.8263 15.1666 32.2121 14.8636C32.2465 14.8367 32.2766 14.805 32.3016 14.7692L40.774 2.64027C41.3352 1.83688 42.2534 1.35823 43.2334 1.35823H48.0748C48.5839 1.35823 49.0808 1.22008 49.5442 1.00917C51.1794 0.264912 52.9326 0 54.5791 0C57.0868 0 59.9314 0.633891 62.2707 2.44963C64.7814 4.39844 66.2308 7.35172 66.2308 10.8554C66.2308 11.5528 66.1914 12.2246 66.1144 12.8728C66.078 13.1789 66.2316 13.4781 66.5004 13.6289C67.0053 13.9124 67.6605 13.5629 67.6605 12.9838V12.9271C67.6605 12.514 67.9954 12.1792 68.4084 12.1792H91.3413C92.3559 12.1792 93.0947 11.2138 93.0947 10.1992C93.0947 6.00226 96.3953 2.38867 100.905 2.38867C105.407 2.38867 108.763 5.94666 108.763 10.1992C108.763 11.1111 109.503 11.9515 110.414 11.9535C111.212 11.9552 112.022 12.012 112.842 12.124C116.873 12.6749 120.163 14.4955 122.451 17.1678C123.627 18.5411 125.664 19.0655 127.352 18.4183C130.127 17.3542 133.238 17.1344 136.378 17.9136C137.505 18.1933 138.562 18.585 139.536 19.0831C139.766 19.2007 140.007 19.2967 140.258 19.359L148.709 21.4559C150.317 21.8549 151.297 23.482 150.898 25.0901L144.743 49.895C144.392 51.3101 143.074 52.2679 141.62 52.165L140.573 52.091C138.877 51.971 137.42 53.2832 137.363 54.9826L137.301 56.803C137.301 56.8183 137.306 56.8333 137.316 56.8447C137.425 56.9676 137.627 57.1586 138.001 57.441C138.385 57.7306 138.823 58.0241 139.421 58.4226L139.589 58.5341C140.804 59.3411 142.713 60.6091 144.212 62.437C145.967 64.5763 147.071 67.3229 146.955 70.7855C146.841 74.1683 145.549 77.8404 142.216 80.3236C138.961 82.7489 134.646 83.3726 129.851 82.6821Z" fill="white"/>
<path d="M141.563 24.8343L145.564 25.827L140.488 46.2859L136.487 45.2932L137.141 42.6563C135.156 44.2389 132.691 44.834 129.873 44.1346C124.417 42.7808 121.011 37.4471 122.613 30.9912C124.226 24.4898 129.719 21.4127 135.175 22.7664C137.994 23.4659 139.905 25.0985 140.909 27.4712L141.563 24.8343ZM126.704 32.0065C125.7 36.0528 127.365 39.6514 131.275 40.6216C135.231 41.603 138.339 39.189 139.343 35.1427C140.359 31.0509 138.728 27.5091 134.772 26.5277C130.863 25.5575 127.72 27.9147 126.704 32.0065Z" fill="#22627F"/>
<path fill-rule="evenodd" clip-rule="evenodd" d="M100.906 13.0567C99.266 13.0567 98.0949 11.7919 98.0949 10.1992C98.0949 8.65343 99.266 7.38867 100.906 7.38867C102.592 7.38867 103.763 8.65343 103.763 10.1992C103.763 11.7919 102.592 13.0567 100.906 13.0567ZM93.0828 34.9795V34.9791C95.6123 34.9791 98.7507 31.3254 98.7507 23.5963V17.1788H102.873V20.3486C104.972 17.7618 108.2 16.5362 112.165 17.078C117.27 17.7756 120.438 21.2344 120.97 25.9877L116.515 25.3788C116.03 23.0432 114.349 21.1588 111.657 20.7909C107.759 20.2581 105.119 22.9704 104.548 27.1475C103.984 31.2781 105.793 34.6457 109.831 35.1975C112.476 35.559 114.204 34.3296 115.538 32.5262L119.994 33.135C118.058 37.2674 114.336 39.5954 109.323 38.9104C107.926 38.7195 106.676 38.3483 105.584 37.8185C104.02 37.2317 102.768 36.097 101.885 34.632C101.439 33.9611 101.081 33.225 100.812 32.4316C99.746 36.2244 96.9609 38.7259 93.0843 38.7266V38.7269C84.9805 38.7269 82.1699 33.7147 82.1699 27.9999C82.1699 25.3298 82.8725 22.6129 84.8868 20.8329H76.8766C76.8766 30.8573 76.5956 36.7126 69.2881 38.4927V34.1363C72.286 33.0589 72.6608 30.1078 72.6608 20.8797V17.1792H90.0863V20.2239C86.9479 22.3787 86.3389 25.0956 86.3389 27.2504C86.3389 31.0911 87.6034 34.9787 93.0828 34.9795Z" fill="#22627F"/>
<path fill-rule="evenodd" clip-rule="evenodd" d="M59.4511 16.7107C60.5753 15.1181 61.2311 13.2912 61.2311 10.8554C61.2311 6.78003 58.0458 5 54.5794 5C50.5041 5 48.2088 7.24846 48.2088 13.8533V19.8928C46.663 17.8336 44.4154 16.7105 41.5125 16.7105C35.8914 16.7105 31.3008 21.0201 31.3008 27.7186C31.3008 34.3703 35.8914 38.7267 41.5125 38.7267C44.4154 38.7267 46.663 37.5568 48.2088 35.5443V38.2585H52.3309V38.2582H52.3332V35.4511C53.8323 37.557 56.1267 38.7269 59.0295 38.7269C64.6975 38.7269 69.2881 34.3705 69.2881 27.7188C69.2881 21.2076 64.9317 16.9449 59.4511 16.7107ZM56.3166 34.6238C56.9948 34.8555 57.7451 34.9795 58.5611 34.9795C62.6364 34.9795 65.0722 31.8878 65.0722 27.7188C65.0722 24.3876 63.5514 21.7876 60.9027 20.8431C60.1993 20.5922 59.4163 20.4582 58.5611 20.4582C56.1131 20.4582 54.2566 21.5568 53.1644 23.3479C52.8003 23.945 52.5211 24.619 52.3332 25.3549C52.1464 26.0866 52.0499 26.8795 52.0499 27.7188C52.0499 28.5488 52.1464 29.3361 52.3332 30.0648C52.6183 31.1766 53.1134 32.1519 53.7963 32.9345C54.4639 33.6994 55.311 34.2801 56.3166 34.6238ZM52.7378 19.3736L52.7397 19.3716L52.7403 19.3709C55.0745 16.9142 57.2494 14.6251 57.2494 11.7922C57.2494 9.82482 56.2658 8.74743 54.7668 8.74743C53.1741 8.74743 52.3309 10.0122 52.3309 13.8065V17.1789H52.3332V19.7999C52.4684 19.6572 52.6034 19.5151 52.7378 19.3736ZM42.0278 20.4579C45.2265 20.4579 47.4152 22.3337 48.2088 25.1792C48.4263 25.9591 48.539 26.8117 48.539 27.7186C48.539 28.6154 48.4263 29.4623 48.2088 30.2393C47.4152 33.0746 45.2265 34.9792 42.0278 34.9792C38.2511 34.9792 35.833 32.262 35.5455 28.4872C35.5263 28.2355 35.5166 27.9792 35.5166 27.7186C35.5166 24.0297 37.4174 21.2374 40.5914 20.597C41.0448 20.5055 41.5242 20.4579 42.0278 20.4579ZM44.2763 6.35823L39.8262 12.7289H43.8078L49.3821 6.35823H44.2763Z" fill="#22627F"/>
<path d="M23.7572 11.8711C24.7712 11.7452 25.6953 12.4651 25.8212 13.4791L25.8559 13.7584C25.9818 14.7724 25.2619 15.6965 24.2479 15.8224L11.7428 17.3752C10.7288 17.5011 10.0089 18.4252 10.1348 19.4392L11.0699 26.9702C11.1958 27.9842 12.1199 28.7042 13.1339 28.5783L23.4541 27.2968C24.4681 27.1709 25.3922 27.8908 25.5181 28.9048L25.5528 29.1841C25.6787 30.1981 24.9588 31.1222 23.9448 31.2481L13.6246 32.5296C12.6105 32.6555 11.8906 33.5796 12.0165 34.5936L13.2287 44.3559C13.3546 45.37 12.6347 46.294 11.6207 46.42L10.8766 46.5123C9.86255 46.6383 8.93847 45.9183 8.81256 44.9043L5.22798 16.0362C5.10207 15.0222 5.82201 14.0981 6.83602 13.9722L23.7572 11.8711Z" fill="#22627F"/>
<path fill-rule="evenodd" clip-rule="evenodd" d="M29.3177 39.0336C26.3429 39.1295 23.6586 40.7453 23.7714 44.2427C23.8388 46.3331 24.4522 47.8827 25.4611 49.2184C20.7642 49.5711 17.1436 53.3499 17.3238 58.9377C17.508 64.646 21.5681 68.2575 26.4323 68.1007C28.9247 68.0203 30.8621 66.9517 32.0901 65.1012L32.1679 67.5132L35.7022 67.3992L35.7023 67.3997C35.7028 67.3995 35.7033 67.3994 35.7039 67.3992L35.7055 67.3991L35.7055 67.3987C37.3773 66.8619 39.0827 66.1231 40.6611 65.1874C42.1887 66.3857 44.1844 67.1261 46.4356 67.0535C50.2546 66.9303 53.0712 64.425 54.0762 60.6501L50.217 60.7746C49.3871 62.4915 48.0605 63.7818 46.0505 63.8466C45.0857 63.8777 44.2337 63.6637 43.4958 63.2449C47.3045 60.3051 49.9577 56.4771 49.8397 52.8189C49.7333 49.5225 47.5548 48.1038 44.6604 48.1972C40.158 48.3424 36.7825 52.234 36.964 57.862C37.0185 59.5504 37.5152 61.2245 38.406 62.6445C37.4592 63.1975 36.5085 63.6303 35.5953 63.9815L35.0299 46.455C34.8471 40.7868 32.8151 38.9208 29.3177 39.0336ZM26.7306 64.8717C23.2332 64.9845 21.0572 62.3987 20.9418 58.821C20.8251 55.203 22.8312 52.5226 26.3286 52.4097C29.826 52.2969 32.0007 54.8425 32.1174 58.4605C32.2328 62.0383 30.228 64.7589 26.7306 64.8717ZM31.2938 51.3156C29.2226 49.2718 27.2927 47.3676 27.2143 44.9365C27.1599 43.2481 27.9742 42.2963 29.2606 42.2548C30.6274 42.2107 31.386 43.2727 31.4911 46.5289L31.657 51.6745C31.5357 51.5543 31.4145 51.4347 31.2938 51.3156ZM41.2447 60.8225C40.8141 59.9511 40.5392 58.9137 40.5068 57.9087C40.3901 54.2907 41.9903 51.5026 44.3621 51.4261C45.8093 51.3795 46.1996 52.2522 46.236 53.3778C46.3215 56.031 44.1144 58.7179 41.2447 60.8225Z" fill="#22627F"/>
<path fill-rule="evenodd" clip-rule="evenodd" d="M68.6544 48.3129C68.7914 44.2399 72.0348 42.568 75.4992 42.6845C79.5722 42.8216 81.7906 45.146 81.5685 51.7471L80.8816 72.1618C81.9709 71.8235 83.1101 71.3932 84.254 70.8225C83.3276 69.104 82.8788 67.1204 82.9449 65.1541C83.1655 58.5998 87.3865 54.3361 92.63 54.5125C96.0008 54.6259 98.4238 56.4416 98.2946 60.2806C98.1512 64.5409 94.7744 68.7861 90.123 71.9105C90.9483 72.4538 91.922 72.7678 93.0456 72.8056C95.3864 72.8843 97.027 71.4866 98.1231 69.555L98.1442 69.5557C98.9431 67.8945 99.5197 65.5094 99.6302 62.2262L99.846 55.8123L103.966 55.9509L103.865 58.9543C105.78 57.0914 108.376 56.0938 111.193 56.1886C114.096 56.2863 116.306 57.4855 117.781 59.5974L117.872 56.8821L121.992 57.0207L121.423 73.9544C125.436 74.0697 127.289 67.6211 128.154 57.2142L132.227 57.3513C132.129 60.2745 134.279 61.7062 136.575 63.2353C139.207 64.9877 142.031 66.8681 141.883 71.2683C141.73 75.8095 138.558 79.546 130.488 78.384L130.621 74.4514C135.647 75.5111 137.648 73.1412 137.726 70.8472C137.796 68.7556 136.141 67.726 134.313 66.5892C133.318 65.9703 132.272 65.3196 131.426 64.4485C130.234 72.0407 127.591 78.2743 121.284 78.0743L121.283 78.0881L117.164 77.9494L117.255 75.2341C115.642 77.1952 113.356 78.29 110.453 78.1924C108.932 78.1412 107.497 77.7733 106.217 77.132C104.58 76.4814 103.279 75.2833 102.389 73.6952C102.059 73.1876 101.77 72.6428 101.526 72.0637C100.628 73.534 99.4338 74.6984 98.0105 75.4747C97.056 76.0703 95.9457 76.4333 94.6991 76.5073C94.2284 76.5599 93.744 76.5786 93.2473 76.5619C90.6256 76.4737 88.3631 75.4602 86.6797 73.9506C84.7724 74.9176 82.7325 75.6457 80.7473 76.1413L80.7474 76.1384L76.628 75.9998L76.7225 73.1908C75.1535 75.2471 72.8201 76.3404 69.9175 76.2427C69.5366 76.2299 69.1612 76.1976 68.7924 76.1464C66.3684 76.0584 64.4059 75.0051 63.0488 73.2889C62.195 72.4197 61.491 71.3784 60.9779 70.1912C59.7578 73.1301 57.3205 75.2053 54.0379 75.1812L54.1765 71.0614C56.4268 71.0434 59.2788 68.4678 59.5403 60.6963L59.7561 54.2824L63.8759 54.421L63.8044 56.5467C65.562 55.0695 67.8019 54.2469 70.2365 54.2248C69.1664 52.5953 68.5724 50.7474 68.6544 48.3129ZM70.5116 72.5131C68.1523 72.4338 66.3776 71.336 65.3292 69.6165C65.1051 69.2184 64.8962 68.7771 64.7072 68.2922C64.3671 67.318 64.2086 66.2178 64.2483 65.0376C64.3901 60.8242 66.9269 57.863 71 58.0001C75.073 58.1371 77.4051 61.2621 77.2633 65.4756C77.1231 69.6422 74.5847 72.6502 70.5116 72.5131ZM76.854 57.1092L76.854 57.1092L76.8541 57.1094C76.9852 57.257 77.1169 57.4052 77.2486 57.5541L77.4502 51.5616C77.5778 47.7695 76.7777 46.4771 75.1859 46.4236C73.6878 46.3731 72.6684 47.4168 72.6022 49.3831C72.507 52.2144 74.6037 54.5753 76.854 57.1092ZM62.0482 50.235C60.4097 50.1799 59.2818 48.8765 59.3353 47.2847C59.3873 45.7398 60.6003 44.5151 62.2388 44.5702C63.9242 44.627 65.0521 45.9304 65.0001 47.4753C64.9466 49.0671 63.7336 50.2917 62.0482 50.235ZM99.4253 48.8146C99.3717 50.4064 100.5 51.7098 102.138 51.7649C103.824 51.8216 105.037 50.597 105.09 49.0052C105.142 47.4603 104.014 46.1569 102.329 46.1001C100.69 46.045 99.4773 47.2697 99.4253 48.8146ZM104.831 66.9889C104.691 71.1555 107.068 74.3289 111.094 74.4644C115.167 74.6014 117.706 71.5934 117.846 67.4268C117.988 63.2133 115.655 60.0883 111.582 59.9513C107.556 59.8158 104.973 62.7754 104.831 66.9889ZM87.0585 65.48C87.0191 66.6504 87.259 67.8771 87.6925 68.9228C91.1889 66.697 93.9598 63.7437 94.0638 60.6538C94.1079 59.3429 93.7212 58.2988 92.0358 58.2421C89.2736 58.1492 87.2002 61.2665 87.0585 65.48Z" fill="#22627F"/>
</svg>
