<svg width="491" height="18" viewBox="0 0 491 18" fill="none" xmlns="http://www.w3.org/2000/svg">
<path d="M4 3.49854C28.1502 3.49854 28.1502 14.061 52.3005 14.061C76.4507 14.061 76.4507 3.49854 100.601 3.49854C124.751 3.49854 124.751 14.061 148.845 14.061C172.996 14.061 172.996 3.49854 197.089 3.49854C221.24 3.49854 221.24 14.061 245.332 14.061C269.483 14.061 269.483 3.49854 293.632 3.49854C317.783 3.49854 317.783 14.061 341.934 14.061C366.083 14.061 366.083 3.49854 390.234 3.49854C414.384 3.49854 414.384 14.061 438.535 14.061C462.684 14.061 462.684 3.49854 486.835 3.49854" stroke="#DD7A43" stroke-width="7" stroke-miterlimit="10" stroke-linecap="round"/>
</svg>
